<svg width="126" height="80" viewBox="0 0 126 80" fill="none" xmlns="http://www.w3.org/2000/svg">
<path d="M56.6667 46.6667C59.8749 46.6549 63.0115 45.7173 65.7 43.9667L66.6667 43.3333C67.2036 42.9693 67.7057 42.5564 68.1667 42.1L68.8667 41.4333C69.4533 40.8349 69.9885 40.1882 70.4667 39.5L70.6667 39.2333C71.2065 38.4371 71.6644 37.5884 72.0333 36.7C72.1533 36.4527 72.2536 36.1964 72.3333 35.9333C72.6103 35.2519 72.8332 34.5497 73 33.8333L73.2 33C73.3264 32.0053 73.371 31.002 73.3333 30V6.66667L63.3333 16.6667H50L40 6.66667V30C40 34.4203 41.7559 38.6595 44.8816 41.7851C48.0072 44.9107 52.2464 46.6667 56.6667 46.6667ZM63.3333 23.3333C63.9926 23.3333 64.6371 23.5288 65.1852 23.8951C65.7334 24.2614 66.1606 24.782 66.4129 25.3911C66.6652 26.0001 66.7312 26.6704 66.6026 27.317C66.474 27.9636 66.1565 28.5575 65.6904 29.0237C65.2242 29.4899 64.6302 29.8073 63.9836 29.936C63.337 30.0646 62.6668 29.9986 62.0577 29.7463C61.4486 29.494 60.928 29.0667 60.5618 28.5186C60.1955 27.9704 60 27.3259 60 26.6667C60 25.7826 60.3512 24.9348 60.9763 24.3096C61.6014 23.6845 62.4493 23.3333 63.3333 23.3333ZM50 23.3333C50.6593 23.3333 51.3037 23.5288 51.8519 23.8951C52.4001 24.2614 52.8273 24.782 53.0796 25.3911C53.3319 26.0001 53.3979 26.6704 53.2693 27.317C53.1407 27.9636 52.8232 28.5575 52.357 29.0237C51.8908 29.4899 51.2969 29.8073 50.6503 29.936C50.0037 30.0646 49.3335 29.9986 48.7244 29.7463C48.1153 29.494 47.5947 29.0667 47.2284 28.5186C46.8622 27.9704 46.6667 27.3259 46.6667 26.6667C46.6667 25.7826 47.0179 24.9348 47.643 24.3096C48.2681 23.6845 49.1159 23.3333 50 23.3333Z" fill="#4A3A2B"/>
<path d="M36.6667 73.3333V56.6667H26.6667V73.3333H16.6667V39.6667C14.9712 39.4204 13.3511 38.8027 11.9221 37.8577C10.493 36.9127 9.29037 35.6637 8.4 34.2C7.3237 32.4277 6.7264 30.406 6.66666 28.3333C6.72711 26.675 7.12617 25.0465 7.8393 23.5481C8.55244 22.0496 9.56457 20.7129 10.8135 19.6201C12.0623 18.5274 13.5216 17.7016 15.1014 17.1937C16.6812 16.6858 18.3483 16.5064 20 16.6667C20.8894 16.7201 21.7801 16.5843 22.6131 16.2682C23.4462 15.9521 24.2027 15.4628 24.8328 14.8328C25.4628 14.2027 25.9521 13.4462 26.2682 12.6131C26.5843 11.7801 26.7201 10.8894 26.6667 10C26.6667 9.11595 27.0179 8.2681 27.643 7.64298C28.2681 7.01786 29.1159 6.66667 30 6.66667C30.8841 6.66667 31.7319 7.01786 32.357 7.64298C32.9821 8.2681 33.3333 9.11595 33.3333 10C33.384 11.7647 33.0737 13.5212 32.4216 15.1618C31.7695 16.8023 30.7892 18.2925 29.5408 19.5408C28.2925 20.7892 26.8023 21.7695 25.1618 22.4216C23.5212 23.0737 21.7647 23.384 20 23.3333C13.9667 23.3333 13.3333 27.2 13.3333 28.3667C13.3333 29.5333 13.9333 33.3333 20 33.3333H36.9667C37.4563 36.2049 38.5673 38.9349 40.222 41.3324C41.8768 43.7299 44.0352 45.7369 46.5465 47.2132C49.0578 48.6895 51.8612 49.5993 54.7608 49.8792C57.6604 50.159 60.5861 49.8021 63.3333 48.8333V73.3333H53.3333V56.6667H46.6667V73.3333H36.6667Z" fill="#4A3A2B"/>
<path d="M97 52C91.8087 52 87.1066 52.4887 83.7641 53.2578C82.0927 53.6423 80.7588 54.1042 79.9165 54.5624C79.4954 54.7915 79.2021 55.0208 79.05 55.1918C78.8979 55.3627 78.8937 55.4345 78.8937 55.4665C78.8937 55.4987 78.8979 55.5703 79.05 55.7412C79.2021 55.9122 79.4954 56.1415 79.9165 56.3706C80.7588 56.8288 82.0927 57.2907 83.7641 57.6752C84.2412 57.785 84.7488 57.8883 85.2789 57.9861C85.7083 57.6067 87.126 57.2606 89.2758 57.0105C91.4255 56.7603 94.1653 56.6225 97 56.622C99.8346 56.6223 102.575 56.7599 104.726 57.0099C106.876 57.26 108.295 57.6059 108.726 57.9853C109.254 57.8878 109.76 57.7847 110.236 57.6752C111.907 57.2907 113.241 56.8288 114.083 56.3706C114.505 56.1415 114.798 55.9122 114.95 55.7412C115.102 55.5703 115.106 55.4986 115.106 55.4665C115.106 55.4344 115.102 55.3627 114.95 55.1918C114.798 55.0208 114.505 54.7915 114.083 54.5624C113.241 54.1042 111.907 53.6423 110.236 53.2578C106.893 52.4887 102.191 52 97 52ZM78.1042 57.3165L74.0844 68.2024L74.0806 68.2114C73.9636 68.5087 73.9789 68.648 74.0946 68.8796C74.2103 69.1113 74.4973 69.4287 74.9946 69.7509C75.9889 70.3955 77.7513 71.0229 79.9733 71.5134C84.4173 72.4946 90.7142 73 97 73C103.286 73 109.583 72.4946 114.027 71.5134C116.249 71.0229 118.011 70.3955 119.005 69.751C119.503 69.4287 119.79 69.1113 119.905 68.8796C120.021 68.648 120.036 68.5087 119.919 68.2114L119.916 68.2024L115.896 57.3165C115.614 57.5551 115.29 57.7663 114.924 57.9649C113.844 58.5526 112.396 59.0327 110.63 59.4391C107.097 60.252 102.3 60.7416 97 60.7416C91.6997 60.7416 86.9033 60.252 83.3704 59.4391C81.6039 59.0327 80.1558 58.5526 79.0755 57.9649C78.7103 57.7663 78.3861 57.555 78.1042 57.3165Z" fill="#4A3A2B"/>
</svg>
