<svg width="48" height="49" viewBox="0 0 48 49" fill="none" xmlns="http://www.w3.org/2000/svg">
<circle cx="24" cy="24.3369" r="24" fill="#C53607"/>
<path fill-rule="evenodd" clip-rule="evenodd" d="M24.33 34.2259C25.8427 33.3877 32.0406 29.5579 32.0406 23.0788C32.0406 18.2152 28.4407 14.2725 24 14.2725C19.5593 14.2725 15.9595 18.2152 15.9595 23.0788C15.9595 29.5579 22.1573 33.3877 23.67 34.2259C23.8772 34.3407 24.1228 34.3407 24.33 34.2259ZM24.0001 26.8526C25.9032 26.8526 27.446 25.1629 27.446 23.0785C27.446 20.9941 25.9032 19.3044 24.0001 19.3044C22.0969 19.3044 20.5541 20.9941 20.5541 23.0785C20.5541 25.1629 22.0969 26.8526 24.0001 26.8526Z" fill="white"/>
</svg>
