<svg width="49" height="49" viewBox="0 0 49 49" fill="none" xmlns="http://www.w3.org/2000/svg">
<circle cx="24.408" cy="24.3369" r="24" fill="#C53607"/>
<path fill-rule="evenodd" clip-rule="evenodd" d="M14.7432 16.9692C14.0703 17.6421 14.0703 18.7251 14.0703 20.891V27.7829C14.0703 29.9488 14.0703 31.0317 14.7432 31.7046C15.416 32.3775 16.499 32.3775 18.6649 32.3775H30.1514C32.3173 32.3775 33.4003 32.3775 34.0731 31.7046C34.746 31.0317 34.746 29.9488 34.746 27.7829V20.891C34.746 18.7251 34.746 17.6421 34.0731 16.9692C33.4003 16.2964 32.3173 16.2964 30.1514 16.2964H18.6649C16.499 16.2964 15.416 16.2964 14.7432 16.9692ZM17.9409 20.2539C17.589 20.0193 17.1136 20.1144 16.879 20.4663C16.6444 20.8182 16.7395 21.2936 17.0914 21.5282L23.5585 25.8396C24.073 26.1826 24.7432 26.1826 25.2576 25.8396L31.7247 21.5282C32.0766 21.2936 32.1717 20.8182 31.9371 20.4663C31.7025 20.1144 31.2271 20.0193 30.8752 20.2539L24.4081 24.5653L17.9409 20.2539Z" fill="white"/>
</svg>
