<svg width="95" height="95" viewBox="0 0 95 95" fill="none" xmlns="http://www.w3.org/2000/svg">
<path d="M83.5145 78.47C90.9395 69.8618 95.0166 58.868 94.9999 47.5C95.0166 36.1321 90.9395 25.1382 83.5145 16.53L63.2177 36.822C65.3625 39.9695 66.5065 43.6913 66.5 47.5C66.5 51.4615 65.2887 55.1332 63.2177 58.178L83.5145 78.47ZM78.47 83.5145C69.8618 90.9395 58.868 95.0166 47.5 94.9999C36.1321 95.0166 25.1382 90.9395 16.53 83.5145L36.822 63.2177C39.9695 65.3625 43.6913 66.5065 47.5 66.5C51.4615 66.5 55.1332 65.2887 58.178 63.2177L78.47 83.5145ZM11.4855 78.47L31.7823 58.178C29.6378 55.0304 28.4938 51.3087 28.5 47.5C28.5 43.5385 29.7113 39.8668 31.7823 36.822L11.4855 16.5253C4.05948 25.1347 -0.0177679 36.1304 5.82063e-05 47.5C-0.016626 58.868 4.06055 69.8618 11.4855 78.47ZM47.5 28.5C43.5385 28.5 39.8668 29.7113 36.822 31.7823L16.5253 11.4855C25.1347 4.05948 36.1304 -0.0177679 47.5 5.82063e-05C58.868 -0.016626 69.8618 4.06055 78.47 11.4855L58.178 31.7823C55.0304 29.6378 51.3087 28.4938 47.5 28.5Z" fill="#4A3A2B"/>
</svg>
