<svg width="49" height="49" viewBox="0 0 49 49" fill="none" xmlns="http://www.w3.org/2000/svg">
<circle cx="24.8164" cy="24.0938" r="24" fill="#C53607"/>
<path d="M16.9134 16.1978L19.1967 13.9145C19.4958 13.6155 19.9806 13.6155 20.2797 13.9145L23.7107 17.3456C24.0097 17.6446 24.0097 18.1295 23.7107 18.4285L21.4315 20.7077C21.0942 21.045 21.0106 21.5603 21.2239 21.9869C22.4571 24.4533 24.4569 26.4531 26.9233 27.6863C27.3499 27.8996 27.8652 27.816 28.2025 27.4787L30.4817 25.1995C30.7807 24.9004 31.2656 24.9004 31.5646 25.1995L34.9957 28.6305C35.2947 28.9296 35.2947 29.4144 34.9957 29.7135L32.7124 31.9968C31.0956 33.6136 28.536 33.7955 26.7068 32.4236L22.8796 29.5532C21.5444 28.5518 20.3584 27.3658 19.357 26.0306L16.4866 22.2034C15.1147 20.3742 15.2966 17.8146 16.9134 16.1978Z" fill="white"/>
</svg>
