<svg width="120" height="120" viewBox="0 0 120 120" fill="none" xmlns="http://www.w3.org/2000/svg">
<path d="M12.5 70C11.837 70 11.2011 70.2634 10.7322 70.7322C10.2634 71.2011 10 71.837 10 72.5C10 73.163 10.2634 73.7989 10.7322 74.2678C11.2011 74.7366 11.837 75 12.5 75H20C20 80.3043 22.1071 85.3914 25.8579 89.1421C29.6086 92.8929 34.6957 95 40 95H80C85.3043 95 90.3914 92.8929 94.1421 89.1421C97.8929 85.3914 100 80.3043 100 75H107.5C108.163 75 108.799 74.7366 109.268 74.2678C109.737 73.7989 110 73.163 110 72.5C110 71.837 109.737 71.2011 109.268 70.7322C108.799 70.2634 108.163 70 107.5 70H12.5Z" fill="#4A3A2B"/>
<path fill-rule="evenodd" clip-rule="evenodd" d="M57.7627 25.1325L60.0002 26.25L62.2377 27.3675L62.2327 27.375L62.2027 27.4375L62.0777 27.7125C61.4097 29.2041 60.9067 30.7642 60.5777 32.365C59.9877 35.3125 60.2052 37.92 61.7677 39.4825C65.2052 42.92 64.9877 47.8125 64.3277 51.115C63.8971 53.2186 63.2208 55.2643 62.3127 57.21L62.2627 57.3175L62.2452 57.35L62.2402 57.3625L62.2377 57.365L60.0002 56.25L57.7627 55.1325L57.7677 55.125L57.7977 55.0625L57.9227 54.7875C58.5907 53.296 59.0936 51.7359 59.4227 50.135C60.0127 47.1875 59.7952 44.58 58.2327 43.0175C54.7952 39.58 55.0127 34.6875 55.6727 31.385C56.1032 29.2814 56.7795 27.2357 57.6877 25.29L57.7377 25.1825L57.7552 25.15L57.7602 25.14L57.7627 25.1325ZM37.9252 31.1025L40.0002 32.5025C42.0727 33.9 42.0752 33.8975 42.0752 33.8975L42.0427 33.9475C41.8232 34.2974 41.6181 34.656 41.4277 35.0225C40.955 35.9197 40.5779 36.864 40.3027 37.84C39.7027 40.07 39.9177 41.83 41.4877 42.99C45.5427 45.995 45.3277 50.4875 44.5227 53.465C44.1547 54.7881 43.6477 56.0686 43.0102 57.285C42.7314 57.8209 42.4286 58.3439 42.1027 58.8525L42.0827 58.8825L42.0777 58.8925L42.0752 58.895C42.0752 58.895 42.0727 58.9 40.0002 57.5C37.9277 56.1 37.9252 56.1025 37.9252 56.1025L37.9577 56.055L38.0927 55.84C38.2609 55.558 38.421 55.2712 38.5727 54.98C38.9602 54.235 39.4052 53.235 39.6977 52.16C40.2977 49.93 40.0827 48.1725 38.5127 47.01C34.4577 44.005 34.6727 39.515 35.4777 36.535C35.8902 35.005 36.5002 33.66 36.9902 32.715C37.2692 32.1801 37.572 31.6579 37.8977 31.15L37.9152 31.12L37.9227 31.1075L37.9252 31.1025ZM80.4252 31.1025L82.5002 32.5025C84.5727 33.9 84.5752 33.8975 84.5752 33.8975L84.5427 33.9475C84.3233 34.2974 84.1181 34.656 83.9277 35.0225C83.455 35.9197 83.0779 36.864 82.8027 37.84C82.2027 40.07 82.4177 41.83 83.9877 42.99C88.0427 45.995 87.8277 50.4875 87.0227 53.465C86.6547 54.7881 86.1477 56.0686 85.5102 57.285C85.2322 57.8208 84.9302 58.3439 84.6052 58.8525L84.5852 58.8825L84.5777 58.8925L84.5752 58.895C84.5752 58.895 84.5727 58.9 82.5002 57.5C80.4277 56.1 80.4252 56.1025 80.4252 56.1025L80.4577 56.055L80.5927 55.84C80.7609 55.558 80.921 55.2712 81.0727 54.98C81.4602 54.235 81.9052 53.235 82.1977 52.16C82.7977 49.93 82.5827 48.1725 81.0127 47.01C76.9577 44.005 77.1727 39.515 77.9777 36.535C78.3902 35.005 79.0002 33.66 79.4902 32.715C79.7684 32.1801 80.0704 31.658 80.3952 31.15L80.4152 31.12L80.4227 31.1075L80.4277 31.1025H80.4252Z" fill="#4A3A2B"/>
</svg>
