<svg width="30" height="30" viewBox="0 0 30 30" fill="none" xmlns="http://www.w3.org/2000/svg">
<path d="M26.373 24.78C28.7177 22.0616 30.0053 18.5899 30 15C30.0053 11.4101 28.7177 7.93837 26.373 5.22001L19.9635 11.628C20.6408 12.6219 21.0021 13.7973 21 15C21 16.251 20.6175 17.4105 19.9635 18.372L26.373 24.78ZM24.78 26.373C22.0616 28.7177 18.5899 30.0053 15 30C11.4101 30.0053 7.93837 28.7177 5.22001 26.373L11.628 19.9635C12.6219 20.6408 13.7973 21.0021 15 21C16.251 21 17.4105 20.6175 18.372 19.9635L24.78 26.373ZM3.62701 24.78L10.0365 18.372C9.35931 17.378 8.99804 16.2027 9.00001 15C9.00001 13.749 9.38251 12.5895 10.0365 11.628L3.62701 5.21851C1.28194 7.93726 -0.00561091 11.4096 1.83809e-05 15C-0.00525031 18.5899 1.28228 22.0616 3.62701 24.78ZM15 9.00001C13.749 9.00001 12.5895 9.38251 11.628 10.0365L5.21851 3.62701C7.93726 1.28194 11.4096 -0.00561091 15 1.83809e-05C18.5899 -0.00525031 22.0616 1.28228 24.78 3.62701L18.372 10.0365C17.378 9.35931 16.2027 8.99804 15 9.00001Z" fill="#EDE9E0"/>
</svg>
