<svg width="28" height="30" viewBox="0 0 28 30" fill="none" xmlns="http://www.w3.org/2000/svg">
<path fill-rule="evenodd" clip-rule="evenodd" d="M28 18.6667V24.8889C28.0001 26.0792 27.5453 27.2246 26.7287 28.0906C25.9121 28.9567 24.7954 29.4779 23.6071 29.5478L23.3333 29.5556H15.5556V18.6667H28ZM12.4444 18.6667V29.5556H4.66667C3.47634 29.5556 2.33098 29.1008 1.46493 28.2842C0.598878 27.4676 0.0776105 26.3509 0.00777796 25.1627L7.24958e-09 24.8889V18.6667H12.4444ZM8.81533 0C10.8998 0 12.7633 0.945778 14 2.43289C14.5903 1.72119 15.3209 1.1388 16.1463 0.722086C16.9717 0.305369 17.8742 0.0632656 18.7973 0.0108888L19.1862 0H19.2889C20.3615 0 21.3903 0.42611 22.1487 1.18459C22.9072 1.94307 23.3333 2.97179 23.3333 4.04444C23.3333 4.69156 23.2167 5.31067 23.0051 5.88467L22.8651 6.22222H23.3333C24.5237 6.22216 25.669 6.67695 26.5351 7.49355C27.4011 8.31015 27.9224 9.42683 27.9922 10.6151L28 10.8889V15.5556H15.5556V6.22222H12.4444V15.5556H7.24958e-09V10.8889C-6.63005e-05 9.69856 0.454728 8.5532 1.27133 7.68715C2.08793 6.8211 3.20461 6.29983 4.39289 6.23L4.66667 6.22222H5.13333C4.83467 5.558 4.66667 4.82222 4.66667 4.04444C4.6666 3.01591 5.0584 2.02598 5.76235 1.27608C6.4663 0.526182 7.42951 0.072655 8.456 0.00777796L8.71111 0H8.81533ZM8.81533 3.11111H8.71111C8.46358 3.11111 8.22618 3.20944 8.05114 3.38448C7.87611 3.55951 7.77778 3.79691 7.77778 4.04444C7.77778 4.62203 8.00722 5.17595 8.41563 5.58437C8.82405 5.99278 9.37797 6.22222 9.95556 6.22222H12.4071C12.2822 5.3583 11.8502 4.56831 11.1903 3.99695C10.5304 3.42558 9.68823 3.1111 8.81533 3.11111ZM19.2889 3.11111H19.1847C17.4424 3.11111 15.988 4.33689 15.638 5.97333L15.5913 6.22222H18.0444C18.622 6.22222 19.176 5.99278 19.5844 5.58437C19.9928 5.17595 20.2222 4.62203 20.2222 4.04444C20.2222 3.82309 20.1435 3.60896 20.0002 3.44028C19.8568 3.2716 19.6582 3.15934 19.4398 3.12356L19.2889 3.11111Z" fill="#EDE9E0"/>
</svg>
