<svg width="94" height="91" viewBox="0 0 94 91" fill="none" xmlns="http://www.w3.org/2000/svg">
<path d="M89.6796 1.64302C88.3367 1.00897 86.8308 0.805058 85.3676 1.05914C83.9044 1.31322 82.5553 2.0129 81.5048 3.06258C81.4417 3.12567 81.3876 3.18425 81.3335 3.24734L73.5553 12.2154C65.5803 7.22554 56.3627 4.57949 46.9554 4.57949C37.5481 4.57949 28.3305 7.22554 20.3555 12.2154L12.5547 3.24734C12.5006 3.18425 12.4466 3.12567 12.3835 3.06258C11.3329 2.0129 9.98387 1.31322 8.52068 1.05914C7.05749 0.805058 5.55154 1.00897 4.2086 1.64302C2.9548 2.2587 1.90114 3.2171 1.16974 4.40712C0.438342 5.59714 0.0591478 6.97006 0.0761064 8.36677V47.817C0.0761064 69.8991 18.1293 88.2092 41.338 90.7734C41.5908 90.8014 41.8467 90.7755 42.0889 90.6975C42.331 90.6196 42.5539 90.4912 42.7429 90.321C42.9319 90.1507 43.0827 89.9424 43.1854 89.7097C43.2881 89.4769 43.3404 89.2251 43.3389 88.9708V74.5498L37.2911 68.4975C36.6055 67.8321 36.2034 66.9275 36.169 65.9727C36.1346 65.0179 36.4704 64.0867 37.1063 63.3736C37.437 63.0215 37.835 62.7393 38.2768 62.544C38.7186 62.3487 39.1952 62.2441 39.6782 62.2366C40.1612 62.229 40.6408 62.3186 41.0885 62.5C41.5362 62.6814 41.9429 62.9509 42.2844 63.2925L46.9441 67.9522L51.6039 63.288C51.9454 62.9464 52.3521 62.6768 52.7998 62.4954C53.2475 62.3141 53.7271 62.2245 54.2101 62.232C54.6931 62.2396 55.1696 62.3442 55.6114 62.5395C56.0532 62.7348 56.4513 63.0169 56.7819 63.3691C57.4178 64.0822 57.7537 65.0134 57.7192 65.9682C57.6848 66.923 57.2828 67.8276 56.5971 68.493L50.5494 74.5453V88.9662C50.5478 89.2206 50.6001 89.4724 50.7029 89.7052C50.8056 89.9379 50.9564 90.1462 51.1454 90.3165C51.3344 90.4867 51.5573 90.6151 51.7994 90.693C52.0415 90.771 52.2974 90.7969 52.5503 90.7689C75.7589 88.2046 93.8121 69.8991 93.8121 47.817V8.36677C93.8291 6.97006 93.4499 5.59714 92.7185 4.40712C91.9871 3.2171 90.9335 2.2587 89.6796 1.64302ZM27.1154 55.0275C26.0458 55.0275 25.0002 54.7103 24.1109 54.1161C23.2216 53.5219 22.5285 52.6773 22.1191 51.6891C21.7098 50.701 21.6027 49.6136 21.8114 48.5646C22.0201 47.5156 22.5351 46.552 23.2914 45.7957C24.0477 45.0394 25.0113 44.5244 26.0603 44.3157C27.1094 44.107 28.1967 44.2141 29.1848 44.6234C30.173 45.0328 31.0176 45.7259 31.6118 46.6152C32.206 47.5045 32.5232 48.5501 32.5232 49.6196C32.5232 51.0539 31.9534 52.4294 30.9393 53.4436C29.9251 54.4577 28.5496 55.0275 27.1154 55.0275ZM36.1284 26.1856C36.1284 27.1418 35.7486 28.0588 35.0725 28.7349C34.3964 29.411 33.4794 29.7909 32.5232 29.7909C31.567 29.7909 30.65 29.411 29.9739 28.7349C29.2978 28.0588 28.918 27.1418 28.918 26.1856V17.6232C28.918 16.667 29.2978 15.75 29.9739 15.0739C30.65 14.3978 31.567 14.018 32.5232 14.018C33.4794 14.018 34.3964 14.3978 35.0725 15.0739C35.7486 15.75 36.1284 16.667 36.1284 17.6232V26.1856ZM50.5494 26.1856C50.5494 27.1418 50.1695 28.0588 49.4934 28.7349C48.8173 29.411 47.9003 29.7909 46.9441 29.7909C45.988 29.7909 45.071 29.411 44.3948 28.7349C43.7187 28.0588 43.3389 27.1418 43.3389 26.1856V15.3699C43.3389 14.4138 43.7187 13.4968 44.3948 12.8207C45.071 12.1445 45.988 11.7647 46.9441 11.7647C47.9003 11.7647 48.8173 12.1445 49.4934 12.8207C50.1695 13.4968 50.5494 14.4138 50.5494 15.3699V26.1856ZM57.7598 26.1856V17.6232C57.7598 16.667 58.1397 15.75 58.8158 15.0739C59.4919 14.3978 60.4089 14.018 61.3651 14.018C62.3212 14.018 63.2382 14.3978 63.9143 15.0739C64.5905 15.75 64.9703 16.667 64.9703 17.6232V26.1856C64.9703 27.1418 64.5905 28.0588 63.9143 28.7349C63.2382 29.411 62.3212 29.7909 61.3651 29.7909C60.4089 29.7909 59.4919 29.411 58.8158 28.7349C58.1397 28.0588 57.7598 27.1418 57.7598 26.1856ZM66.7729 55.0275C65.7033 55.0275 64.6578 54.7103 63.7685 54.1161C62.8792 53.5219 62.186 52.6773 61.7767 51.6891C61.3674 50.701 61.2603 49.6136 61.469 48.5646C61.6776 47.5156 62.1927 46.552 62.949 45.7957C63.7053 45.0394 64.6689 44.5244 65.7179 44.3157C66.7669 44.107 67.8542 44.2141 68.8424 44.6234C69.8306 45.0328 70.6751 45.7259 71.2694 46.6152C71.8636 47.5045 72.1808 48.5501 72.1808 49.6196C72.1808 51.0539 71.611 52.4294 70.5968 53.4436C69.5827 54.4577 68.2072 55.0275 66.7729 55.0275Z" fill="#4A3A2B"/>
</svg>
