<svg width="94" height="99" viewBox="0 0 94 99" fill="none" xmlns="http://www.w3.org/2000/svg">
<path fill-rule="evenodd" clip-rule="evenodd" d="M93.5989 62.4561V83.0716C93.5991 87.0154 92.0923 90.8102 89.3867 93.6796C86.6812 96.549 82.9814 98.2761 79.0444 98.5075L78.1373 98.5332H52.3679V62.4561H93.5989ZM42.0602 62.4561V98.5332H16.2908C12.347 98.5334 8.55221 97.0266 5.68281 94.3211C2.81342 91.6155 1.08635 87.9157 0.854982 83.9787L0.829212 83.0716V62.4561H42.0602ZM30.0362 0.60968C36.9424 0.60968 43.1167 3.74323 47.2141 8.67033C49.1698 6.31233 51.5906 4.38277 54.3253 3.0021C57.06 1.62143 60.05 0.819292 63.1086 0.645757L64.3971 0.60968H64.7372C68.2911 0.60968 71.6995 2.02147 74.2125 4.53447C76.7255 7.04747 78.1373 10.4558 78.1373 14.0097C78.1373 16.1538 77.7507 18.205 77.0498 20.1068L76.586 21.2252H78.1373C82.0811 21.2249 85.8759 22.7318 88.7453 25.4373C91.6147 28.1429 93.3418 31.8427 93.5731 35.7797L93.5989 36.6868V52.1484H52.3679V21.2252H42.0602V52.1484H0.829212V36.6868C0.828993 32.743 2.33582 28.9482 5.04139 26.0788C7.74696 23.2094 11.4467 21.4823 15.3837 21.2509L16.2908 21.2252H17.837C16.8474 19.0245 16.2908 16.5867 16.2908 14.0097C16.2906 10.602 17.5887 7.32215 19.921 4.83759C22.2534 2.35303 25.4447 0.850401 28.8457 0.63545L29.6909 0.60968H30.0362ZM30.0362 10.9174H29.6909C28.8708 10.9174 28.0842 11.2432 27.5043 11.8231C26.9244 12.4031 26.5986 13.1896 26.5986 14.0097C26.5986 15.9234 27.3588 17.7587 28.7119 19.1118C30.0651 20.465 31.9003 21.2252 33.814 21.2252H41.9365C41.5226 18.3628 40.0914 15.7454 37.9049 13.8524C35.7184 11.9593 32.9283 10.9174 30.0362 10.9174ZM64.7372 10.9174H64.3919C58.6196 10.9174 53.8007 14.9787 52.6411 20.4005L52.4865 21.2252H60.6141C62.5278 21.2252 64.363 20.465 65.7162 19.1118C67.0693 17.7587 67.8295 15.9234 67.8295 14.0097C67.8294 13.2764 67.5686 12.5669 67.0938 12.008C66.6189 11.4491 65.9609 11.0772 65.2371 10.9587L64.7372 10.9174Z" fill="#4A3A2B"/>
</svg>
