<svg width="108" height="44" viewBox="0 0 108 44" fill="none" xmlns="http://www.w3.org/2000/svg">
<path fill-rule="evenodd" clip-rule="evenodd" d="M14 0C14.4125 0 14.8081 0.163865 15.0998 0.455548C15.3915 0.74723 15.5553 1.14284 15.5553 1.55534V38.2395L25.3415 28.4502C25.6336 28.1582 26.0297 27.9941 26.4427 27.9941C26.8557 27.9941 27.2518 28.1582 27.5439 28.4502C27.8359 28.7423 28 29.1384 28 29.5514C28 29.9644 27.8359 30.3605 27.5439 30.6526L15.1012 43.0953C14.9567 43.2401 14.7851 43.355 14.5961 43.4335C14.4072 43.5119 14.2046 43.5522 14 43.5522C13.7954 43.5522 13.5928 43.5119 13.4039 43.4335C13.2149 43.355 13.0433 43.2401 12.8988 43.0953L0.456123 30.6526C0.164072 30.3605 -9.73113e-09 29.9644 0 29.5514C9.73114e-09 29.1384 0.164072 28.7423 0.456123 28.4502C0.748174 28.1582 1.14428 27.9941 1.5573 27.9941C1.97032 27.9941 2.36643 28.1582 2.65848 28.4502L12.4447 38.2395V1.55534C12.4447 1.14284 12.6085 0.74723 12.9002 0.455548C13.1919 0.163865 13.5875 0 14 0Z" fill="#C53607"/>
<path fill-rule="evenodd" clip-rule="evenodd" d="M54 0C54.4125 0 54.8081 0.163865 55.0998 0.455548C55.3915 0.74723 55.5553 1.14284 55.5553 1.55534V38.2395L65.3415 28.4502C65.6336 28.1582 66.0297 27.9941 66.4427 27.9941C66.8557 27.9941 67.2518 28.1582 67.5439 28.4502C67.8359 28.7423 68 29.1384 68 29.5514C68 29.9644 67.8359 30.3605 67.5439 30.6526L55.1012 43.0953C54.9567 43.2401 54.7851 43.355 54.5961 43.4335C54.4072 43.5119 54.2046 43.5522 54 43.5522C53.7954 43.5522 53.5928 43.5119 53.4039 43.4335C53.2149 43.355 53.0433 43.2401 52.8988 43.0953L40.4561 30.6526C40.1641 30.3605 40 29.9644 40 29.5514C40 29.1384 40.1641 28.7423 40.4561 28.4502C40.7482 28.1582 41.1443 27.9941 41.5573 27.9941C41.9703 27.9941 42.3664 28.1582 42.6585 28.4502L52.4447 38.2395V1.55534C52.4447 1.14284 52.6085 0.74723 52.9002 0.455548C53.1919 0.163865 53.5875 0 54 0Z" fill="#C53607"/>
<path fill-rule="evenodd" clip-rule="evenodd" d="M94 0C94.4125 0 94.8081 0.163865 95.0998 0.455548C95.3915 0.74723 95.5553 1.14284 95.5553 1.55534V38.2395L105.342 28.4502C105.634 28.1582 106.03 27.9941 106.443 27.9941C106.856 27.9941 107.252 28.1582 107.544 28.4502C107.836 28.7423 108 29.1384 108 29.5514C108 29.9644 107.836 30.3605 107.544 30.6526L95.1012 43.0953C94.9567 43.2401 94.7851 43.355 94.5961 43.4335C94.4072 43.5119 94.2046 43.5522 94 43.5522C93.7954 43.5522 93.5928 43.5119 93.4039 43.4335C93.2149 43.355 93.0433 43.2401 92.8988 43.0953L80.4561 30.6526C80.1641 30.3605 80 29.9644 80 29.5514C80 29.1384 80.1641 28.7423 80.4561 28.4502C80.7482 28.1582 81.1443 27.9941 81.5573 27.9941C81.9703 27.9941 82.3664 28.1582 82.6585 28.4502L92.4447 38.2395V1.55534C92.4447 1.14284 92.6085 0.74723 92.9002 0.455548C93.1919 0.163865 93.5875 0 94 0Z" fill="#C53607"/>
</svg>
