<svg width="75" height="75" viewBox="0 0 75 75" fill="none" xmlns="http://www.w3.org/2000/svg">
<path d="M60.9375 23.4375H9.375C8.7534 23.4375 8.15726 23.6844 7.71772 24.124C7.27818 24.5635 7.03125 25.1596 7.03125 25.7812V39.8438C7.03825 43.8339 7.89158 47.7773 9.5349 51.4134C11.1782 55.0494 13.5741 58.2956 16.5645 60.9375H9.375C8.7534 60.9375 8.15726 61.1844 7.71772 61.624C7.27818 62.0635 7.03125 62.6596 7.03125 63.2812C7.03125 63.9029 7.27818 64.499 7.71772 64.9385C8.15726 65.3781 8.7534 65.625 9.375 65.625H60.9375C61.5591 65.625 62.1552 65.3781 62.5948 64.9385C63.0343 64.499 63.2812 63.9029 63.2812 63.2812C63.2812 62.6596 63.0343 62.0635 62.5948 61.624C62.1552 61.1844 61.5591 60.9375 60.9375 60.9375H53.7481C57.3375 57.7561 60.0595 53.7145 61.6582 49.1924C64.6351 49.009 67.43 47.6974 69.4735 45.5249C71.517 43.3524 72.6552 40.4825 72.6562 37.5V35.1562C72.6562 32.0482 71.4216 29.0675 69.2239 26.8698C67.0262 24.6721 64.0455 23.4375 60.9375 23.4375ZM67.9688 37.5C67.9677 39.0163 67.4765 40.4917 66.5684 41.7061C65.6603 42.9204 64.3839 43.8087 62.9297 44.2383C63.1619 42.7849 63.2795 41.3155 63.2812 39.8438V28.5293C64.6518 29.0138 65.8384 29.9113 66.6779 31.098C67.5173 32.2848 67.9683 33.7026 67.9688 35.1562V37.5ZM32.8125 16.4062V7.03125C32.8125 6.40965 33.0594 5.81351 33.499 5.37397C33.9385 4.93443 34.5346 4.6875 35.1562 4.6875C35.7779 4.6875 36.374 4.93443 36.8135 5.37397C37.2531 5.81351 37.5 6.40965 37.5 7.03125V16.4062C37.5 17.0279 37.2531 17.624 36.8135 18.0635C36.374 18.5031 35.7779 18.75 35.1562 18.75C34.5346 18.75 33.9385 18.5031 33.499 18.0635C33.0594 17.624 32.8125 17.0279 32.8125 16.4062ZM42.1875 16.4062V7.03125C42.1875 6.40965 42.4344 5.81351 42.874 5.37397C43.3135 4.93443 43.9096 4.6875 44.5312 4.6875C45.1529 4.6875 45.749 4.93443 46.1885 5.37397C46.6281 5.81351 46.875 6.40965 46.875 7.03125V16.4062C46.875 17.0279 46.6281 17.624 46.1885 18.0635C45.749 18.5031 45.1529 18.75 44.5312 18.75C43.9096 18.75 43.3135 18.5031 42.874 18.0635C42.4344 17.624 42.1875 17.0279 42.1875 16.4062ZM23.4375 16.4062V7.03125C23.4375 6.40965 23.6844 5.81351 24.124 5.37397C24.5635 4.93443 25.1596 4.6875 25.7812 4.6875C26.4029 4.6875 26.999 4.93443 27.4385 5.37397C27.8781 5.81351 28.125 6.40965 28.125 7.03125V16.4062C28.125 17.0279 27.8781 17.624 27.4385 18.0635C26.999 18.5031 26.4029 18.75 25.7812 18.75C25.1596 18.75 24.5635 18.5031 24.124 18.0635C23.6844 17.624 23.4375 17.0279 23.4375 16.4062Z" fill="#4A3A2B"/>
</svg>
