<svg width="29" height="28" viewBox="0 0 29 28" fill="none" xmlns="http://www.w3.org/2000/svg">
<path d="M27.7213 0.21353C27.3059 0.0173722 26.84 -0.045714 26.3873 0.0328928C25.9346 0.1115 25.5172 0.327964 25.1922 0.652707C25.1727 0.672226 25.156 0.690351 25.1393 0.70987L22.7328 3.48436C20.2656 1.94063 17.4139 1.12201 14.5035 1.12201C11.5931 1.12201 8.74138 1.94063 6.27413 3.48436L3.86075 0.70987C3.84402 0.690351 3.82729 0.672226 3.80777 0.652707C3.48275 0.327964 3.06539 0.1115 2.61271 0.0328928C2.16004 -0.045714 1.69413 0.0173722 1.27866 0.21353C0.890767 0.404009 0.564791 0.700512 0.338513 1.06868C0.112236 1.43684 -0.005078 1.86159 0.000168581 2.2937V14.4987C0.000168581 21.3303 5.58539 26.995 12.7656 27.7883C12.8438 27.797 12.923 27.789 12.9979 27.7649C13.0728 27.7407 13.1418 27.701 13.2002 27.6483C13.2587 27.5957 13.3054 27.5312 13.3371 27.4592C13.3689 27.3872 13.3851 27.3093 13.3846 27.2306V22.7691L11.5136 20.8967C11.3015 20.6908 11.1771 20.411 11.1664 20.1156C11.1558 19.8202 11.2597 19.5321 11.4564 19.3115C11.5587 19.2025 11.6819 19.1153 11.8185 19.0548C11.9552 18.9944 12.1027 18.962 12.2521 18.9597C12.4015 18.9574 12.5499 18.9851 12.6884 19.0412C12.8269 19.0973 12.9527 19.1807 13.0584 19.2864L14.5 20.728L15.9416 19.285C16.0473 19.1793 16.1731 19.0959 16.3116 19.0398C16.4501 18.9837 16.5985 18.956 16.7479 18.9583C16.8973 18.9607 17.0448 18.993 17.1815 19.0534C17.3181 19.1139 17.4413 19.2011 17.5436 19.3101C17.7403 19.5307 17.8442 19.8188 17.8336 20.1142C17.8229 20.4096 17.6985 20.6895 17.4864 20.8953L15.6154 22.7677V27.2292C15.6149 27.3079 15.6311 27.3858 15.6629 27.4578C15.6946 27.5298 15.7413 27.5943 15.7998 27.647C15.8582 27.6996 15.9272 27.7393 16.0021 27.7635C16.077 27.7876 16.1562 27.7956 16.2344 27.7869C23.4146 26.9936 28.9998 21.3303 28.9998 14.4987V2.2937C29.0051 1.86159 28.8878 1.43684 28.6615 1.06868C28.4352 0.700512 28.1092 0.404009 27.7213 0.21353ZM8.36546 16.7294C8.03456 16.7294 7.71109 16.6313 7.43596 16.4474C7.16082 16.2636 6.94638 16.0023 6.81975 15.6966C6.69312 15.3909 6.65999 15.0545 6.72455 14.7299C6.7891 14.4054 6.94844 14.1073 7.18243 13.8733C7.41641 13.6393 7.71452 13.48 8.03906 13.4154C8.3636 13.3509 8.7 13.384 9.00571 13.5106C9.31142 13.6373 9.57271 13.8517 9.75655 14.1268C9.94039 14.402 10.0385 14.7254 10.0385 15.0563C10.0385 15.5001 9.86225 15.9256 9.54849 16.2394C9.23473 16.5531 8.80918 16.7294 8.36546 16.7294ZM11.1539 7.80642C11.1539 8.10224 11.0364 8.38594 10.8272 8.59511C10.618 8.80428 10.3343 8.9218 10.0385 8.9218C9.7427 8.9218 9.459 8.80428 9.24983 8.59511C9.04065 8.38594 8.92314 8.10224 8.92314 7.80642V5.15742C8.92314 4.8616 9.04065 4.5779 9.24983 4.36873C9.459 4.15956 9.7427 4.04204 10.0385 4.04204C10.3343 4.04204 10.618 4.15956 10.8272 4.36873C11.0364 4.5779 11.1539 4.8616 11.1539 5.15742V7.80642ZM15.6154 7.80642C15.6154 8.10224 15.4979 8.38594 15.2887 8.59511C15.0795 8.80428 14.7958 8.9218 14.5 8.9218C14.2042 8.9218 13.9205 8.80428 13.7113 8.59511C13.5021 8.38594 13.3846 8.10224 13.3846 7.80642V4.46031C13.3846 4.16449 13.5021 3.88079 13.7113 3.67162C13.9205 3.46245 14.2042 3.34494 14.5 3.34494C14.7958 3.34494 15.0795 3.46245 15.2887 3.67162C15.4979 3.88079 15.6154 4.16449 15.6154 4.46031V7.80642ZM17.8461 7.80642V5.15742C17.8461 4.8616 17.9636 4.5779 18.1728 4.36873C18.382 4.15956 18.6657 4.04204 18.9615 4.04204C19.2573 4.04204 19.541 4.15956 19.7502 4.36873C19.9593 4.5779 20.0769 4.8616 20.0769 5.15742V7.80642C20.0769 8.10224 19.9593 8.38594 19.7502 8.59511C19.541 8.80428 19.2573 8.9218 18.9615 8.9218C18.6657 8.9218 18.382 8.80428 18.1728 8.59511C17.9636 8.38594 17.8461 8.10224 17.8461 7.80642ZM20.6345 16.7294C20.3036 16.7294 19.9802 16.6313 19.705 16.4474C19.4299 16.2636 19.2155 16.0023 19.0888 15.6966C18.9622 15.3909 18.9291 15.0545 18.9936 14.7299C19.0582 14.4054 19.2175 14.1073 19.4515 13.8733C19.6855 13.6393 19.9836 13.48 20.3081 13.4154C20.6327 13.3509 20.9691 13.384 21.2748 13.5106C21.5805 13.6373 21.8418 13.8517 22.0256 14.1268C22.2095 14.402 22.3076 14.7254 22.3076 15.0563C22.3076 15.5001 22.1313 15.9256 21.8176 16.2394C21.5038 16.5531 21.0783 16.7294 20.6345 16.7294Z" fill="#EDE9E0"/>
</svg>
