<svg width="24" height="24" viewBox="0 0 24 24" fill="none" xmlns="http://www.w3.org/2000/svg">
<path d="M21.3333 0H2.66667C1.18667 0 0 1.18667 0 2.66667V21.3333C0 22.0406 0.280951 22.7189 0.781048 23.219C1.28115 23.719 1.95942 24 2.66667 24H21.3333C22.0406 24 22.7189 23.719 23.219 23.219C23.719 22.7189 24 22.0406 24 21.3333V2.66667C24 1.95942 23.719 1.28115 23.219 0.781048C22.7189 0.280951 22.0406 0 21.3333 0Z" fill="#4A3A2B"/>
<path d="M10.456 15.936C10.456 15.36 10.52 14.832 10.648 14.352C10.792 13.872 11.008 13.44 11.296 13.056C11.6 12.656 11.992 12.304 12.472 12C12.76 11.808 13.088 11.608 13.456 11.4C13.84 11.192 14.2 10.952 14.536 10.68C14.888 10.392 15.176 10.056 15.4 9.672C15.624 9.272 15.736 8.8 15.736 8.256C15.736 7.648 15.592 7.144 15.304 6.744C15.032 6.328 14.672 6.016 14.224 5.808C13.776 5.6 13.296 5.496 12.784 5.496C12.256 5.496 11.76 5.6 11.296 5.808C10.832 6.016 10.424 6.296 10.072 6.648C9.736 6.984 9.456 7.36 9.232 7.776L7.816 6.84C8.104 6.184 8.504 5.624 9.016 5.16C9.544 4.696 10.136 4.344 10.792 4.104C11.448 3.864 12.128 3.744 12.832 3.744C13.424 3.744 14 3.84 14.56 4.032C15.136 4.208 15.648 4.488 16.096 4.872C16.56 5.256 16.928 5.736 17.2 6.312C17.472 6.888 17.608 7.568 17.608 8.352C17.608 8.96 17.528 9.48 17.368 9.912C17.208 10.344 16.984 10.72 16.696 11.04C16.424 11.36 16.104 11.64 15.736 11.88C15.368 12.12 14.984 12.352 14.584 12.576C14.2 12.784 13.824 13.016 13.456 13.272C13.104 13.528 12.808 13.864 12.568 14.28C12.344 14.68 12.232 15.232 12.232 15.936H10.456ZM10.504 21V18.216H12.28V21H10.504Z" fill="#EDE9E0"/>
</svg>
