<?xml version="1.0" standalone="no"?>
<!DOCTYPE svg PUBLIC "-//W3C//DTD SVG 20010904//EN"
 "http://www.w3.org/TR/2001/REC-SVG-20010904/DTD/svg10.dtd">
<svg version="1.0" xmlns="http://www.w3.org/2000/svg"
 width="700.000000pt" height="700.000000pt" viewBox="0 0 700.000000 700.000000"
 preserveAspectRatio="xMidYMid meet">
<metadata>
Created by potrace 1.14, written by Peter Selinger 2001-2017
</metadata>
<g transform="translate(0.000000,700.000000) scale(0.100000,-0.100000)"
fill="#000000" stroke="none">
<path d="M525 6770 c-49 -15 -95 -69 -135 -155 -35 -76 -82 -233 -96 -320 -3
-22 -7 -42 -9 -45 -2 -3 -7 -37 -10 -75 -4 -39 -8 -72 -10 -75 -2 -3 -6 -39
-10 -80 -4 -41 -9 -88 -11 -105 -14 -134 -19 -301 -19 -610 0 -376 6 -545 30
-785 3 -30 8 -80 11 -110 4 -51 40 -314 49 -370 2 -14 7 -43 10 -65 8 -49 76
-359 80 -363 2 -2 -7 -43 -20 -90 -47 -179 -92 -415 -110 -577 -4 -33 -8 -73
-10 -90 -26 -205 -36 -608 -18 -690 43 -189 231 -463 513 -745 457 -458 1044
-822 1650 -1023 117 -39 322 -94 415 -112 268 -50 372 -60 655 -60 191 0 335
7 395 19 11 2 45 7 75 11 30 4 62 9 70 10 147 27 210 41 331 75 458 125 905
341 1307 629 123 89 152 110 256 196 105 85 137 115 281 259 272 273 461 546
508 735 17 66 12 456 -8 606 -2 17 -7 59 -10 95 -4 36 -9 81 -11 100 -4 37
-23 171 -29 205 -19 106 -40 203 -56 268 l-20 79 35 136 c19 76 37 148 40 162
2 14 10 54 16 90 7 36 14 74 15 85 2 11 10 63 18 115 9 52 21 138 27 190 6 52
13 109 15 125 2 17 7 66 10 110 3 44 8 96 10 115 13 105 20 334 20 650 0 390
-8 575 -35 775 -6 44 -12 94 -14 110 -4 26 -9 58 -31 176 -11 58 -57 207 -81
258 -35 78 -83 138 -124 155 -130 53 -444 -35 -849 -238 -192 -96 -299 -156
-571 -319 -212 -126 -668 -452 -850 -606 l-85 -72 -75 7 c-41 3 -91 8 -110 10
-264 24 -734 24 -960 -2 -135 -15 -105 -27 -289 120 -287 230 -555 415 -909
627 -224 134 -646 347 -742 374 -14 4 -29 11 -35 15 -13 9 -151 55 -230 76
-73 19 -219 27 -260 14z m655 -1019 c157 -41 514 -212 784 -375 l55 -33 -72
-28 c-216 -84 -448 -212 -636 -353 -109 -82 -313 -273 -379 -357 l-32 -40 -1
45 c-4 174 4 485 16 595 2 22 7 65 10 95 27 252 65 409 112 456 17 17 68 15
143 -5z m4786 2 c33 -34 72 -164 89 -298 3 -22 7 -51 10 -65 2 -14 7 -52 10
-85 3 -33 7 -78 10 -100 14 -150 24 -679 13 -691 -3 -2 -20 17 -39 44 -93 130
-384 392 -564 507 -133 85 -365 203 -472 241 -29 10 -53 21 -53 24 0 4 35 27
78 52 365 216 744 385 869 387 17 1 39 -7 49 -16z m-4081 -2171 c26 -5 26 -5
7 -26 -39 -43 -67 -116 -98 -261 -11 -52 -13 -366 -3 -450 37 -315 168 -436
262 -243 74 150 95 493 47 746 -11 62 -48 162 -68 185 -19 22 -15 22 55 -5 66
-24 152 -70 203 -107 52 -37 161 -149 198 -204 71 -102 138 -275 155 -403 7
-50 -1 -64 -97 -160 -200 -200 -411 -285 -676 -271 -223 12 -434 103 -585 253
-129 128 -231 339 -251 520 -7 58 4 75 115 182 124 120 283 205 441 237 63 13
242 18 295 7z m3516 -16 c101 -27 175 -59 269 -120 76 -50 206 -171 238 -224
20 -33 20 -33 0 -125 -22 -104 -71 -230 -120 -309 -114 -185 -298 -318 -528
-379 -112 -30 -339 -33 -440 -5 -85 23 -192 73 -271 126 -72 48 -225 198 -238
232 -5 13 -2 51 5 92 44 229 158 423 325 551 31 25 60 45 63 45 4 0 23 11 44
23 32 21 161 77 176 77 2 0 -6 -19 -19 -42 -13 -24 -30 -68 -39 -98 -14 -51
-19 -76 -32 -170 -14 -98 -9 -324 10 -455 22 -155 89 -275 153 -275 57 0 117
88 142 210 6 30 14 66 18 80 13 55 12 414 -2 494 -26 145 -66 247 -107 272
-21 14 36 21 158 21 82 1 132 -5 195 -21z m-1786 -466 c81 -40 165 -115 266
-238 46 -57 89 -108 94 -115 6 -7 39 -52 74 -102 142 -198 239 -322 301 -386
58 -59 189 -155 282 -207 233 -130 521 -263 838 -387 52 -20 104 -41 115 -45
23 -10 284 -105 399 -146 87 -31 87 -21 0 -89 -22 -16 -41 -33 -44 -36 -15
-18 -266 -197 -400 -284 -567 -372 -1155 -620 -1655 -696 -38 -6 -81 -12 -95
-15 -58 -9 -204 -18 -320 -18 -180 0 -347 17 -520 54 -25 5 -56 12 -70 14
-108 18 -457 132 -612 199 -18 8 -67 29 -108 47 -131 58 -394 196 -551 290
-230 139 -444 288 -697 488 -23 17 -11 25 108 65 160 55 542 200 635 241 17 8
86 38 155 67 171 73 463 222 589 299 132 82 247 194 366 358 212 291 312 419
382 492 175 184 312 228 468 150z"/>
<path d="M3261 2204 c-109 -18 -202 -63 -232 -110 -79 -128 103 -435 313 -528
l56 -25 -15 -58 c-72 -278 -409 -440 -705 -340 -145 50 -257 143 -323 270 -36
70 -37 71 -30 29 22 -136 115 -276 240 -362 137 -94 342 -133 503 -95 35 8 98
31 139 50 42 19 77 35 78 35 2 0 3 -22 3 -49 2 -162 127 -293 236 -247 75 32
134 135 139 242 1 30 3 54 4 54 0 0 35 -16 75 -35 108 -50 184 -65 308 -61
162 6 297 61 410 166 83 78 153 206 166 303 4 26 -2 20 -31 -34 -160 -295
-550 -387 -830 -197 -97 66 -184 187 -200 280 -3 17 -8 35 -11 39 -2 4 29 24
70 43 162 78 315 290 318 441 1 86 -67 147 -203 180 -90 23 -367 28 -478 9z"/>
</g>
</svg>
